<svg id="Capa_1" data-name="Capa 1" xmlns="http://www.w3.org/2000/svg" viewBox="0 0 612 792"><path d="M471.72,399.08c-.19.47-.41.93-.56,1.41-3,10-9.93,15.23-20.45,15.23H333.63v3.81q0,56.85,0,113.7c0,11.22-7.81,19.88-18.39,20.53a19.66,19.66,0,0,1-21-19.72c-.09-19.61,0-39.23,0-58.85V415.73h-3.8q-57,0-114,0c-11.08,0-19.78-8.12-20.25-18.67a19.66,19.66,0,0,1,19.71-20.74c18.18-.09,36.36,0,54.54,0h63.81V260.34c0-11.86,4.38-17.95,15.6-21.74.17-.06.29-.27.43-.41H317c13,4.62,16.64,9.85,16.64,23.77V376.27H450.74c10.5,0,17.43,5.19,20.43,15.24a15,15,0,0,0,.55,1.4Z"/></svg>