<svg id="Capa_1" data-name="Capa 1" xmlns="http://www.w3.org/2000/svg" viewBox="0 0 612 792"><defs><style>.cls-1{fill:#0c2b4e;}</style></defs><path class="cls-1" d="M439.16,212.88c3.91,1.25,8,2.08,11.68,3.85,15,7.25,23.87,19.3,24.05,36.06.45,41.17.19,82.36.2,123.54,0,.62-.12,1.23-.2,2.06H309.37V212.88Zm-113.1,149H458.59v-4.11q0-50.7,0-101.39c0-16.51-10.38-26.91-26.93-26.93q-50.7,0-101.39,0c-1.37,0-2.74.13-4.21.21Z"/><path class="cls-1" d="M110.4,411.84H276V577.58h-4.43q-58.66,0-117.33,0c-22.93,0-38.46-12.62-43.23-35a3.91,3.91,0,0,0-.57-1Zm149.09,16.81H127.16c-.1,1.14-.23,2-.23,2.91,0,34.57-.09,69.15,0,103.72.05,15.44,10.83,25.77,26.49,25.78q51.09,0,102.17,0c1.25,0,2.5-.11,3.87-.18Z"/><path class="cls-1" d="M276,212.88c.06,1.28.18,2.57.18,3.86q0,78.64,0,157.29v4.38c-1.55.08-2.68.2-3.81.2H113.49c-1,0-2.06-.12-3.09-.19V248.63a9.66,9.66,0,0,0,.71-1.71c2.47-12.62,9.21-22.32,20.42-28.51,4.52-2.49,9.73-3.73,14.62-5.53Zm-16.46,16.51h-4.15q-50.51,0-101,0c-17.05,0-27.4,10.3-27.41,27.29q0,50.51,0,101v4.16H259.49Z"/><path class="cls-1" d="M501.6,592,490,603.61c-19.61-19.61-39.42-39.44-59.16-59.2-37.42,28.89-83.47,17-106.06-12.57-23.17-30.3-19.89-72.76,8-99.52,27.17-26.1,70-27.38,99.19-3,28,23.45,37.81,67.58,10.29,103.45ZM442.06,486.55c.09-31.88-26.17-58.18-58.08-58.18a58.33,58.33,0,0,0-58.08,57.78c-.22,31.85,25.91,58.22,57.88,58.39S442,518.49,442.06,486.55Z"/></svg>