<svg id="Capa_1" data-name="Capa 1" xmlns="http://www.w3.org/2000/svg" viewBox="0 0 612 792"><defs><style>.cls-1{fill:#0c2b4e;}</style></defs><path class="cls-1" d="M127.62,262.33c.77-3.16,1.43-6.37,2.34-9.49,6.76-23.27,28.56-40.37,52.55-40.55,34.94-.27,69.87-.09,104.81-.09.61,0,1.22.08,2.06.13v16h-4.54q-49.36,0-98.73,0c-20.1,0-36.28,12.1-41,30.34a40.43,40.43,0,0,0,39.24,50.69c34.3.2,68.61,0,102.91.1A52.3,52.3,0,0,1,299,310.62c18.69,4.42,31,20.25,31.26,40.14.14,8.86.15,17.73,0,26.58-.06,3,.8,4.7,3.54,6.23,27.37,15.3,54.63,30.79,82,46.12,2.59,1.45,3.72,2.95,3.71,6.09q-.21,53.55,0,107.09c0,2.56-.66,4-3,5.32Q370.5,573.45,324.82,599a4.8,4.8,0,0,1-5.48,0q-45.88-26.36-91.88-52.51c-2.07-1.17-2.66-2.52-2.65-4.8q.1-53.16,0-106.33c0-2.63.84-4,3.13-5.26,27.66-15.55,55.24-31.26,82.89-46.83,2.26-1.27,3.24-2.6,3.18-5.27-.18-8.73,0-17.47-.07-26.2-.06-16.18-10.11-26.16-26.41-26.17-33.17,0-66.35-.61-99.49.16-34.59.8-57.21-24.6-59.85-49.09a5.5,5.5,0,0,0-.55-1.4ZM403.19,449.21c-1.84,1-2.95,1.56-4,2.18Q366.23,470.2,333.27,489a5.27,5.27,0,0,0-3.07,5.33c.1,26.32.06,52.65.07,79,0,1.1.1,2.21.18,3.79,1.42-.71,2.53-1.22,3.59-1.8,21.78-12.09,43.52-24.23,65.36-36.2,2.8-1.53,3.89-3.15,3.87-6.41-.15-26.33-.08-52.65-.08-79Zm-89.58,127.7a14.21,14.21,0,0,0,.29-1.72c0-27.33.06-54.66-.09-82a5.53,5.53,0,0,0-2.55-3.92q-33.64-19.45-67.45-38.63a25.6,25.6,0,0,0-2.81-1.17c0,28.22,0,55.93.12,83.64,0,1.31,1.45,3.11,2.72,3.86,11.34,6.64,22.79,13.1,34.21,19.61Zm-62.7-141.2a16.52,16.52,0,0,0,1.44,1.1c22.59,12.92,45.16,25.87,67.83,38.64,1.14.64,3.39.32,4.65-.4q32.66-18.46,65.19-37.16c1-.6,2-1.26,3.23-2-.69-.49-1.07-.82-1.49-1.07q-33.66-19-67.28-38.08c-2-1.12-3.39-.84-5.18.18Q295.43,410.53,271.51,424Z"/><path class="cls-1" d="M322.09,212.2c18.94,0,37.29-.06,55.63.11,1.45,0,3.12,1.39,4.28,2.54q51.21,51.09,102.32,102.26c7.15,7.16,14.52,14.13,21.38,21.56A40.32,40.32,0,0,1,486,405.33c-13.57,3.47-25.77.27-36.5-8.65-1.46-1.21-2.79-2.58-4.13-3.92q-60.27-60.25-120.59-120.49a8.38,8.38,0,0,1-2.74-6.6c.13-16.45.06-32.9.06-49.35Zm16.15,16.14c0,10.79-.14,20.9.11,31a9.4,9.4,0,0,0,2.47,5.84q57.72,58,115.65,115.75a54.41,54.41,0,0,0,4.15,3.89c12.42,10.07,31.4,5.52,37.72-9,4.19-9.63,1.94-19.84-6.29-28.07q-56.9-56.94-113.72-113.92c-4-4-7.8-5.93-13.47-5.62C356.18,228.69,347.46,228.34,338.24,228.34Z"/></svg>