<svg id="Capa_1" data-name="Capa 1" xmlns="http://www.w3.org/2000/svg" viewBox="0 0 612 792"><defs><style>.cls-1{fill:#1b3c53;}</style></defs><path class="cls-1" d="M46.28,602.57c1.15-5.43,2.07-10.92,3.47-16.28,5.23-20,15.69-36.9,30.32-51.49q92.79-92.56,185.39-185.32,82.41-82.43,164.86-164.83c28.19-28.12,70.26-32.14,101.82-10A78.73,78.73,0,0,1,543.48,294c-8.57,8.94-17.47,17.56-26.23,26.32q-162,162-323.83,324c-24,24.06-52.09,36.47-86.09,35.66-11.36-.27-22.75-.46-34.09.07-13.42.62-22.55-4.52-27-17.42ZM90.5,636.43c6,0,11.74-.19,17.49,0,21.49.83,39-7.15,54.16-22.33q130.14-130.5,260.71-260.56a17.63,17.63,0,0,1,3.85-2.48L375.62,300a46.69,46.69,0,0,1-3.45,4.24c-86.14,86.18-172,172.67-258.7,258.26C92.07,583.58,87.39,608,90.5,636.43ZM457.73,318.07a21.8,21.8,0,0,0,1.76-1.46c17.5-17.49,35.14-34.86,52.44-52.56a35.11,35.11,0,0,0-.09-49.82c-13.79-13.68-35.6-13.79-49.84.17-17.67,17.32-35,34.95-52.53,52.46a11.56,11.56,0,0,0-1.16,1.49Z"/></svg>