<svg id="Capa_1" data-name="Capa 1" xmlns="http://www.w3.org/2000/svg" viewBox="0 0 612 792"><defs><style>.cls-1{fill:#0c2b4e;}</style></defs><path class="cls-1" d="M70.86,212.3c.66-2.64,1.29-5.29,2-7.92,6.59-25,29.72-43.4,55.6-43.44q134.77-.23,269.55-.07c.45,0,.91.09,2,.2-3.45,3.09-6.66,5.75-9.62,8.67-9.15,9-18.27,18.1-27.25,27.3a9.64,9.64,0,0,1-7.6,3.16q-111.58-.13-223.17-.12c-6.77,0-13.12,1.08-17.24,6.69-2.41,3.28-3.51,7.6-4.87,11.56-.52,1.51-.15,3.34-.15,5V591.5H384.22V474.55H501.88v-5.76q0-61.07-.08-122.14a10.15,10.15,0,0,1,3.37-8c12-11.82,23.77-23.82,35.67-35.79a16,16,0,0,1,.29,2.35q0,106.53-.11,213.07a9.89,9.89,0,0,1-2.83,6.2Q486.71,576.27,435,627.83c-1.08,1.08-2.12,2.21-3.17,3.32h-361Zm353,369.12,67.56-67.57H423.82Z"/><path class="cls-1" d="M168.91,533.1V528c0-25.72-.08-51.43.13-77.15a11.22,11.22,0,0,1,2.9-7.1Q303.15,312.25,434.56,181c31.18-31.15,83.11-22.8,100.41,16.41,10.15,23,6.83,44.81-8.83,64.56a92,92,0,0,1-7.24,7.68q-130,130.06-260,260.15a10.25,10.25,0,0,1-8,3.41c-25.56-.15-51.13-.08-76.69-.08Zm39.07-39c8.93,0,17.05-.21,25.14.09a12.27,12.27,0,0,0,10-4.08Q367.55,365.42,492.12,241a60.76,60.76,0,0,0,4.42-4.67,21.62,21.62,0,0,0-10.72-34.45c-9.43-2.71-17.2.4-24.08,7.3q-93.08,93.3-186.34,186.43-32.14,32.15-64.26,64.32c-1.25,1.25-3,2.85-3,4.33C207.85,474,208,483.71,208,494.06Z"/></svg>