<svg id="Capa_1" data-name="Capa 1" xmlns="http://www.w3.org/2000/svg" viewBox="0 0 612 792"><defs><style>.cls-1{fill:#0c2b4e;}</style></defs><path class="cls-1" d="M403.74,598.59H72.21V182.12a8.33,8.33,0,0,0,.71-1.6C78.75,150,101.66,131,132.64,131q144.08,0,288.14,0H426c-1.68,1.8-2.64,2.91-3.68,3.94Q287.68,269.57,153.11,404.3a11.09,11.09,0,0,0-2.92,7c-.18,34.7-.13,69.41-.11,104.11,0,1.62.13,3.24.23,5.28h5.81c34.1,0,68.2-.06,102.29.09a11.66,11.66,0,0,0,9.11-3.86q133.91-134.09,268-268.05c1.2-1.2,2.46-2.36,4-3.83V462.5h-136v6q0,62.32,0,124.66C403.52,595,403.67,596.77,403.74,598.59Z"/><path class="cls-1" d="M189.12,481.69c0-19.3-.06-38,.11-56.69,0-1.5,1.44-3.24,2.63-4.44q22.84-23,45.81-45.89Q352.47,259.89,467.24,145.11c14-14,30.93-17.79,47.49-10.78,25.44,10.77,33.24,43.52,15.35,64.54-1.57,1.85-3.3,3.58-5,5.3Q388.17,341.09,251.33,478a11.55,11.55,0,0,1-9.15,3.73C224.7,481.59,207.21,481.69,189.12,481.69Z"/><path class="cls-1" d="M442.51,585.32V501.48h83.84Z"/></svg>