<svg id="Capa_1" data-name="Capa 1" xmlns="http://www.w3.org/2000/svg" viewBox="0 0 612 792"><path d="M430.14,535.52c-.46.2-.94.37-1.38.61-9.17,5-17.8,3.74-25.24-3.69l-80-80-2.83-2.83-2.7,2.7q-40.2,40.2-80.4,80.39c-7.94,7.93-19.58,8.53-27.52,1.52a19.69,19.69,0,0,1-.93-28.82c13.81-13.93,27.73-27.76,41.6-41.63l39.43-39.44,2.62-2.61-2.69-2.69q-40.31-40.32-80.6-80.63c-7.83-7.84-8.25-19.73-1.11-27.52a19.66,19.66,0,0,1,28.6-.73C250,323,262.76,335.88,275.61,348.74l42.49,42.48,2.63,2.64,2.67-2.68,79.31-79.3c8.39-8.39,15.79-9.6,26.4-4.34.16.08.4,0,.59,0l4.8,4.8c5.91,12.44,4.8,18.73-5,28.58l-78.19,78.18-2.64,2.65,2.88,2.87,79.92,79.93c7.43,7.44,8.65,16,3.67,25.23-.24.44-.4.92-.6,1.38Z"/></svg>