<svg id="Capa_1" data-name="Capa 1" xmlns="http://www.w3.org/2000/svg" viewBox="0 0 612 792"><defs><style>.cls-1{fill:#0c2b4e;}</style></defs><path class="cls-1" d="M170.71,392.27c.38-.93.8-1.85,1.14-2.8a19.77,19.77,0,0,1,18.46-13.39c6.86-.1,13.72,0,20.58,0H468.76c10.85,0,18.77,6.07,20.88,15.94a19.93,19.93,0,0,1-18.38,23.94c-1.35.07-2.7,0-4.05,0-90.43,0-180.85-.12-271.28.14-12.55,0-21.32-3.95-25.22-16.36Z"/><path class="cls-1" d="M170.71,485.85a12.51,12.51,0,0,0,.59-1.42c2.58-9.12,9.56-14.73,19-15.24.73,0,1.46,0,2.19,0H468.2c4.67,0,9.08.78,13,3.45A19.89,19.89,0,0,1,471.17,509c-1,.05-2.08.05-3.11.05H192.66c-11.66,0-18-4.68-21.57-15.9-.05-.18-.25-.31-.38-.47Z"/><path class="cls-1" d="M170.71,299.32a48.67,48.67,0,0,1,2-5.15c3.53-6.79,9.08-10.65,16.8-11.16.93-.06,1.87-.06,2.81-.06q138,0,276,0c5.63,0,10.7,1.21,15,5a19.82,19.82,0,0,1,5.59,21.59c-2.73,7.76-9.59,12.78-18.24,13.32-1.34.09-2.7.05-4.05.05H195.29c-14.44,0-19.53-3.45-24.58-16.68Z"/></svg>