<svg id="Capa_1" data-name="Capa 1" xmlns="http://www.w3.org/2000/svg" viewBox="0 0 612 792"><defs><style>.cls-1{fill:#0c2b4e;}</style></defs><path class="cls-1" d="M156.18,371.35c.3-1,.62-2.05.88-3.08A33.81,33.81,0,0,1,168,350.71q25.17-22.11,50.38-44.21c5.77-5,13.94-5.1,19.28-.29s5.08,11.69-.6,16.68q-22,19.33-44.15,38.58c-.79.69-1.55,1.41-3,2.71H194q131.25,0,262.49,0a28.55,28.55,0,0,1,6.42.47c6.24,1.45,10.22,6.81,9.46,12.36s-6,9.83-12.49,10.1c-1.34.06-2.68,0-4,0H190.79c1.1,1.07,1.76,1.77,2.49,2.42,14.63,12.94,29.31,25.83,43.88,38.82,7.38,6.58,4.45,17-5.43,19.43a14.27,14.27,0,0,1-13.5-3.41c-15.33-13.6-30.51-27.33-46.12-40.67-8.05-6.87-14-14.5-15.93-24.3Z"/></svg>