<svg id="Capa_1" data-name="Capa 1" xmlns="http://www.w3.org/2000/svg" viewBox="0 0 612 792"><defs><style>.cls-1{fill:#0c2b4e;}</style></defs><path class="cls-1" d="M312.4,563.05c-6.34-5.5-12.74-10.91-19-16.5-27.9-24.95-54-51.64-76.13-81.91a252.62,252.62,0,0,1-25-41.87c-11.65-24.78-12.46-50.24-4.5-76,14.44-46.75,45.43-77.45,92.58-90.12,68.77-18.48,139,22.59,158.39,91.26,8.19,29,5.29,56.48-8.91,83.09-12.72,23.83-28.83,45.14-46.68,65.24a612,612,0,0,1-67.81,65.15c-.62.51-1.16,1.1-1.74,1.66ZM310.27,540a410.11,410.11,0,0,0,69.24-69.24c29.76-37.93,45.41-57.88,46.16-84.63,1.43-51.53-52.66-120.58-123.1-115.39-49,3.61-90.23,42.06-100,84.62-10.56,46,18.21,85.09,46.16,123.09A290.65,290.65,0,0,0,310.27,540Z"/><path class="cls-1" d="M312.93,420.42a38.81,38.81,0,1,1,38.92-38.62A38.83,38.83,0,0,1,312.93,420.42Z"/></svg>