<svg id="Capa_1" data-name="Capa 1" xmlns="http://www.w3.org/2000/svg" viewBox="0 0 612 792"><defs><style>.cls-1{fill:#0c2b4e;}</style></defs><path class="cls-1" d="M451.73,697.49H176.15a25.22,25.22,0,0,0-3.86-1.09C112.05,689.1,64.05,637.24,63.1,576.67c-.85-53.34-1.35-106.74.2-160.06,1.44-49.18,26.14-85.11,69.75-107.84,3.82-2,5.14-4.11,5.26-8.46.56-20.15-.85-40.77,2.91-60.36,13.48-70.29,55.55-116.35,123.63-138.22,11.26-3.62,23.29-4.88,35-7.22h28.27a35.12,35.12,0,0,0,4.49,1c74.69,7.32,137.84,64.26,153.4,138,4.63,21.95,3.68,44.09,3.61,66.22,0,4.85,1.66,7,5.83,9.25,43.17,22.89,67.76,58.71,69.17,107.66,1.53,52.92.92,105.92.25,158.88-.64,51-33.41,96.3-81.43,113.84C473.21,693.06,462.31,694.83,451.73,697.49ZM439.06,295.34c4.93-55.41-11.78-103.73-62.35-133.62-44.22-26.15-100.78-21.8-140.28,9.86-43.68,35-51.9,81.71-47.16,123.76ZM338.92,496.7c0-8.63.21-17.26,0-25.88-.41-14.07-11.08-24.41-24.89-24.43s-24.72,10.32-25,24.33q-.43,25.57,0,51.17a24.78,24.78,0,0,0,24.58,24.84c13.85.17,24.91-10.52,25.3-24.74C339.12,513.57,338.93,505.13,338.92,496.7Z"/></svg>