<svg id="Capa_1" data-name="Capa 1" xmlns="http://www.w3.org/2000/svg" viewBox="0 0 612 792"><defs><style>.cls-1{fill:#f4f4f4;}</style></defs><path class="cls-1" d="M48.08,422a11.38,11.38,0,0,0-2.53,8.66c.66,7.84,6.06,11.4,12.05,14,6.93,3,14.2,3.24,21.5,1.61.62-.14,1.48-.48,1.69-1,1.77-4.21,5.74-5.6,8.95-7.93,6.12-4.44,14.89,1.49,16.18,7.21a10.38,10.38,0,0,1-4.13,10.58c-3.48,2.47-7.41,3.86-11.37,1.69-2.93-1.61-5.44-4.07-8.18-6.09a2.35,2.35,0,0,0-1.68-.47c-9.46,2.13-18.65,1.47-27.38-3.19C47.3,444,42.83,439.51,41.69,432.2a18.28,18.28,0,0,1,2.09-11.14c.11-.21.21-.44.33-.69-3.74-.11-9.65,7.5-10.91,13.82-2.12,10.55,3.88,22.07,14,25.56,3-2.24,5.89-4.28,8.68-6.41,4.7-3.58,9.88-1.53,13.23,1.57,6.17,5.69,4.21,14.37-3.87,17.71-4.23,1.75-8,.82-11.44-2.12-2.15-1.87-4.07-4-6.19-5.92A9.65,9.65,0,0,0,45,463.27c-9-3.94-14.65-11.11-15.89-21.23-1.38-11.18,3.18-19.77,12.48-25.83-6.72-7.44-10-16.5-10.8-27.14,15.07,14.8,31.8,17.5,50.35,9.38-2-1.76-3.76-3.41-5.63-4.9a2.08,2.08,0,0,0-1.79,0c-4.43,1.88-8.83,3.84-13.24,5.76-1.06.46-2.13.87-3.19,1.3l-.33-.47c3-2.64,5.94-5.38,9-7.89,1.88-1.51,4-2.6,6-4a2.77,2.77,0,0,0,1.13-1.85c.09-7.59,7.3-14.82,14-15.73,9.25-1.25,16.2,4.57,20.36,12.15a29.1,29.1,0,0,1,3.7,14A38,38,0,0,1,108.06,411,44.32,44.32,0,0,1,97,427.56c-5.35,4.93-11.42,8.12-18.61,8.84-9.57,1-17.69-2.39-24.81-8.89C51.7,425.8,50,423.91,48.08,422Zm40.69-27.55c0,9.23-3.15,16.94-9.86,23.06s-14.74,7.15-23.28,6.13a16.51,16.51,0,0,0,2.79,2.72c8.27,6.13,17.15,7.9,26.76,4,8.3-3.34,13.91-9.75,17.86-17.94,2-4.25,3.76-8.66,4.06-13.48a25.69,25.69,0,0,0-6-18.42c-4.9-6-13.74-8.52-20.18-2.13-1.82,1.82-3.52,3.91-3.49,7.11.64-.1,1.11-.12,1.56-.24,1.82-.49,3.62-1.07,5.45-1.51,2.11-.5,4.27-1.31,6.37-1.21s3.93,1.21,5.94,1.89l-17.44,6.75-.14.8a58.43,58.43,0,0,0,6.41,3.35C86.39,395.68,87.57,394.84,88.77,394.47ZM83.38,402c-7.71,3.49-15.42,5.49-23.58,5.16s-15.66-3.13-23-7.65c3.6,12.26,10.93,19.91,23.44,20.1C70.89,419.75,79.38,415.6,83.38,402ZM60,456.1l-.49-.41c-2.49,1.82-5,3.62-7.45,5.47-1,.78-1,1.69,0,2.51,2,1.62,4,3.23,6.11,4.81a5.77,5.77,0,0,0,1.5.52A12.62,12.62,0,0,1,60,456.1Zm8.09,6.79c0-2.86-1.23-5-2.92-5.08-1.86-.06-3.2,2-3.2,5s1.29,5,3,5S68,465.75,68.05,462.89Zm33.38-16.69a17.05,17.05,0,0,0-1.51-3.5c-1.29-1.84-2.94-1.77-3.87.33a12.66,12.66,0,0,0-.84,5.18c0,1.72,1.83,3.67,2.92,3.47a3.53,3.53,0,0,0,2.76-3.21C101,447.85,101.18,447.24,101.43,446.2Zm-9-5.25-.42-.29c-2.17,1.53-4.37,3-6.5,4.59-1.19.88-1.34,2-.1,2.95q2.76,2.21,5.59,4.31a10.45,10.45,0,0,0,1.81.88A12.56,12.56,0,0,1,92.46,441Z"/><path class="cls-1" d="M246.45,428.48h-5.51V396.92l-.44-.11-12.12,31.66c-4.49.33-4.53.35-6.14-3.83-3.29-8.58-6.52-17.19-9.79-25.78a3.94,3.94,0,0,0-1.13-1.59v31.14h-5.7V390.6c2.49,0,5-.05,7.48,0,.35,0,.83.66,1,1.12q5.59,14.64,11.16,29.32a10.09,10.09,0,0,0,.82,1.35c1.55-3.89,3-7.48,4.42-11.11,2.52-6.57,5-13.17,7.52-19.72a1.79,1.79,0,0,1,1.31-1c2.32-.09,4.65,0,7.11,0Z"/><path class="cls-1" d="M370.41,414.82h5.53c0,.84,0,1.65,0,2.46-.12,2.73.94,4.79,3.33,5.8,5.89,2.48,11.76,2.72,17.36-.91,2.25-1.45,2.85-6.55,1.16-8.65-1.49-1.87-3.67-1.45-5.58-1.68-5.37-.62-10.77-.88-16.11-1.66-3.42-.5-5.61-2.27-5.84-7.55-.32-7.26,2.79-10.24,9-11.87a31.36,31.36,0,0,1,18.14.64c4.45,1.5,7.33,5.12,6.89,10.21-.06.7,0,1.41,0,2.26h-5.6c0-.37-.08-.68-.09-1-.15-5.16-1.5-7.08-6.21-8.11a21.45,21.45,0,0,0-12.38.69,6.16,6.16,0,0,0-4.1,6.52c.14,2.11,1.26,3.55,3.22,3.77,3.2.36,6.42.51,9.62.83s6.65.59,9.92,1.2c3.67.69,5.62,3.46,5.61,7.4a35.39,35.39,0,0,1-.13,5.05c-.59,4-3.34,6.33-6.7,7.41a33.77,33.77,0,0,1-18.93.41C372,426.37,369.62,422.24,370.41,414.82Z"/><path class="cls-1" d="M426.15,428.48h-5.67V390.6a52.17,52.17,0,0,1,6,.08c.66.07,1.31,1,1.82,1.68q10.47,13.92,20.89,27.88a12.6,12.6,0,0,0,1.3,1.24V390.75h5.68v37.79c-2,0-4.11.45-5.93-.15-1.3-.43-2.26-2.2-3.24-3.49C443.23,420,439.51,415,435.78,410c-3.12-4.15-6.22-8.32-9.63-12.89Z"/><path class="cls-1" d="M129.11,428.48h-5.67V390.74H129v16.47h24.52V390.72h5.58v37.74h-5.52V411.92H129.11Z"/><path class="cls-1" d="M327.52,404.72h-6.29c0-.76,0-1.44,0-2.13,0-4.4-1.21-6.35-5.14-7.45a24,24,0,0,0-14.52.33c-2.94,1-4.5,3.43-4.5,6.71v15a5.82,5.82,0,0,0,3.45,5.79,18.31,18.31,0,0,0,11.13,1.57,32.82,32.82,0,0,0,4.1-.71c4.5-1.42,5.44-2.81,5.49-7.67,0-.51,0-1,.07-1.79H327c.86,6.39-.78,10.95-6.73,13a32.92,32.92,0,0,1-22.22,0c-4.27-1.53-6.69-4.57-6.65-9.94,0-4.94.17-9.88,0-14.81-.27-6.62,3.13-10,8.6-11.51a35.47,35.47,0,0,1,18.74,0c3.41.92,6.49,2.7,7.74,6.41C327.16,399.65,327.16,402.15,327.52,404.72Z"/><path class="cls-1" d="M512.16,404.7h-6.28v-2.15c0-4.37-1.26-6.35-5.18-7.42a23.63,23.63,0,0,0-14.17.28c-3.34,1.15-4.82,3.31-4.82,7v14c0,4,1.2,6.05,4.79,7.2a21.71,21.71,0,0,0,16-.56,5.21,5.21,0,0,0,3.42-5.4c-.09-1,0-2.05,0-3.19h5.78c.79,6.46-.91,10.87-6.81,12.86a33.53,33.53,0,0,1-21.7.1c-4.88-1.62-7.13-5-7.13-10.33,0-4.87.17-9.75,0-14.62-.27-6.56,3.14-10,8.64-11.48a35.53,35.53,0,0,1,18.73,0c3.48.93,6.58,2.78,7.8,6.61C511.83,399.77,511.82,402.16,512.16,404.7Z"/><path class="cls-1" d="M513.91,428.57c1.9-4.84,3.68-9.37,5.45-13.9,3-7.67,6-15.35,9.07-23a2,2,0,0,1,1.45-1c2.51-.11,5-.1,7.55,0a1.83,1.83,0,0,1,1.32,1q6.22,15.74,12.34,31.52c.69,1.75,1.42,3.48,2.19,5.39h-5.94c-1-2.62-2-5.35-3.21-8a2.33,2.33,0,0,0-1.67-1.24c-5.89-.09-11.79-.08-17.68,0a2.18,2.18,0,0,0-1.67,1c-1,2.32-1.77,4.75-2.76,7.08a2.24,2.24,0,0,1-1.52,1.17C517.31,428.68,515.77,428.57,513.91,428.57Zm11.46-13.91h16.48c-2.77-7-5.44-13.86-8.24-21Z"/><path class="cls-1" d="M202,428.47h-5.81c-1-2.49-2.15-5.08-3.11-7.75-.38-1.07-.79-1.54-1.92-1.53-5.83.06-11.67.05-17.5,0a1.69,1.69,0,0,0-1.86,1.37c-.8,2.34-1.69,4.65-2.63,6.94-.18.44-.7,1-1.09,1-1.69.11-3.39.05-5.32.05,1.58-4.08,3-7.92,4.56-11.73,2.65-6.72,5.34-13.43,8-20.15.68-1.71,1.24-3.47,2-5.14a1.85,1.85,0,0,1,1.35-.92c2.51-.09,5-.1,7.55,0a2,2,0,0,1,1.4,1.09q6.9,17.31,13.69,34.66C201.49,427,201.68,427.69,202,428.47Zm-11.32-13.83-8.25-21c-2.81,7.19-5.48,14-8.21,21Z"/><path class="cls-1" d="M250,428.57c1.61-4.12,3.09-8,4.6-11.77,2.65-6.73,5.33-13.44,8-20.16.67-1.71,1.25-3.46,2-5.14a1.66,1.66,0,0,1,1.2-.87c2.57-.08,5.16-.09,7.73,0a1.8,1.8,0,0,1,1.33.95c4.15,10.5,8.24,21,12.35,31.52.66,1.71,1.39,3.39,2.19,5.3h-6c-1-2.52-2-5.24-3.17-7.89a2.34,2.34,0,0,0-1.67-1.24c-5.89-.09-11.79,0-17.68-.07a1.66,1.66,0,0,0-1.83,1.4c-.78,2.35-1.67,4.66-2.63,6.94a1.84,1.84,0,0,1-1.31,1C253.56,428.65,252,428.57,250,428.57Zm19.69-34.9c-2.82,7.19-5.48,14-8.22,21H278C275.21,407.62,272.55,400.83,269.73,393.67Z"/><path class="cls-1" d="M368.31,428.49h-6c-1-2.6-2-5.33-3.2-8a2.36,2.36,0,0,0-1.66-1.25c-6-.09-11.92-.08-17.88,0a2,2,0,0,0-1.49,1c-1,2.33-1.77,4.76-2.76,7.09a2.24,2.24,0,0,1-1.51,1.18,48.61,48.61,0,0,1-4.88.05c.93-2.46,1.76-4.75,2.66-7q4.92-12.46,9.88-24.93c.68-1.7,1.26-3.46,2-5.14a1.66,1.66,0,0,1,1.19-.87c2.58-.08,5.16-.09,7.74,0a1.83,1.83,0,0,1,1.33.95c4.15,10.49,8.23,21,12.34,31.52C366.75,424.81,367.48,426.49,368.31,428.49Zm-27.94-13.92h16.45c-2.77-7-5.44-13.81-8.23-20.92-1.43,3.74-2.7,7.11-4,10.46S341.85,410.89,340.37,414.57Z"/><path class="cls-1" d="M469.44,428.48H464V390.74h5.47Z"/><path class="cls-1" d="M372.45,472.52c-3.8.3-4.21.07-5.48-3a9.41,9.41,0,0,1-8.15,3.49c-4.13-.16-6.08-3.14-4.86-7.15.64-2.07,2.27-2.2,3.78-2.32a65,65,0,0,1,7,0c1.29,0,2.37-.54,2.46-1.74a4.41,4.41,0,0,0-1.17-3c-1.58-1.62-6.86-1.36-8.31,0-.79.74-1.13,2-1.78,3.23h-1.7c.28-1.19.23-2.6.86-3.22a10.36,10.36,0,0,1,4-2.4,11.64,11.64,0,0,1,7.69.51c2.5.94,2.8,3.3,2.89,5.65.09,2.2.06,4.41,0,6.61,0,1.23.4,1.85,1.61,1.73S372.92,471.17,372.45,472.52Zm-5.26-7.64c-1.37.12-2.68.28-4,.33-1.65.05-3.3,0-4.95,0-2,.08-2.88,1.49-2.27,3.49s1.74,2.72,4.83,2.55C365,471,368.27,468,367.19,464.88Z"/><path class="cls-1" d="M301.32,472.52c-3.8.3-4.21.07-5.47-3a9.43,9.43,0,0,1-8.16,3.49c-4.13-.16-6.08-3.14-4.86-7.15.64-2.07,2.27-2.2,3.78-2.32a65,65,0,0,1,7,0c1.29,0,2.37-.54,2.46-1.74a4.41,4.41,0,0,0-1.17-3c-1.58-1.62-6.86-1.36-8.31,0-.79.74-1.13,2-1.78,3.23h-1.7c.29-1.19.23-2.6.87-3.22a10.25,10.25,0,0,1,4-2.4,11.64,11.64,0,0,1,7.69.51c2.5.94,2.8,3.3,2.89,5.65.09,2.2.06,4.41,0,6.61,0,1.23.4,1.85,1.61,1.73S301.79,471.17,301.32,472.52Zm-5.26-7.71c-1.26.15-2.38.35-3.52.39a44.79,44.79,0,0,1-5.31,0,2.64,2.64,0,0,0-2.36,3.81c1,2.34,2.81,2.35,4.71,2.28C293.67,471.11,297.1,468.12,296.06,464.81Z"/><path class="cls-1" d="M260.8,472.54H259c0-3.69,0-7.3,0-10.92,0-2.85-1-3.81-4-3.81-2.84,0-3.89,1-3.9,3.76,0,3.63,0,7.25,0,11h-1.88V456.12l2,1.28c1.7-.44,3.4-1.26,5.07-1.21s3.21,1,5.13,1.7c1.59-2.18,4.21-2.3,7-1.38a3.61,3.61,0,0,1,2.64,3.87c-.06,4,0,8,0,12.14l-2,.11V462.09c0-3.88-3.19-5.79-6.45-3.86a2.91,2.91,0,0,0-1.53,2.82c.08,3.63,0,7.27,0,10.9A3.63,3.63,0,0,1,260.8,472.54Z"/><path class="cls-1" d="M387,472.57h-1.8a3,3,0,0,1-.19-.72c0-3.44,0-6.88,0-10.32,0-2.73-1.06-3.72-3.94-3.72s-4,1-4,3.65c0,3.63,0,7.26,0,11.05l-1.9.1V456.17l2.4,1.49c2.32-2.12,6.22-2.68,9.47.74,1.95-2.81,4.63-2.77,7.38-1.87a3.52,3.52,0,0,1,2.57,3.74c0,4,0,8,0,12.23l-2,.13c0-3.78,0-7.4,0-11,0-1.75-.49-3.06-2.06-3.68-1.86-.75-4.7-.05-5.53,1.38a3.86,3.86,0,0,0-.36,1.81C387,464.89,387,468.64,387,472.57Z"/><path class="cls-1" d="M414.27,472.55h-2c0-3.69,0-7.31,0-10.93,0-2.85-1-3.81-4-3.81-2.85,0-3.89,1-3.9,3.76,0,3.62,0,7.24,0,11l-1.89.09V456.13l2,1.27c1.69-.44,3.39-1.26,5.06-1.21s3.21,1,5.14,1.7c1.58-2.18,4.2-2.3,7-1.38a3.62,3.62,0,0,1,2.65,3.87c-.07,4,0,8,0,12.14l-2,.12V462.29c0-3.88-2.49-5.71-6-4.31a2.92,2.92,0,0,0-2,3.06C414.33,464.8,414.27,468.56,414.27,472.55Z"/><path class="cls-1" d="M230.94,465.22c-.52,3.73.16,5.07,3.39,5.67a14.71,14.71,0,0,0,5.68-.24c.78-.16,1.54-1.33,2-2.23s.89-1.79,2.12-1.32a3.66,3.66,0,0,1-1.78,4.44,11.81,11.81,0,0,1-11.36.15,3.73,3.73,0,0,1-2.25-3.81c.09-1.75,0-3.51,0-5.26,0-4.09,1.49-6.13,5.35-6.44a22.27,22.27,0,0,1,6.83.68c2.61.61,3.44,2.05,3.46,4.85v3.51Zm0-1.82c.54,0,1.13.09,1.73.09h9.47c.47-3.28-1.09-5.51-3.82-5.67-1-.05-2.08,0-3.12,0A4.15,4.15,0,0,0,231,463.4Z"/><path class="cls-1" d="M171.37,470.39c-.76.77-.28,2.82-2.26,2.06V450H171v9.29c2.2-3.14,4.88-3.34,7.66-3.18,3.18.18,6.52,1.64,6,6.36-.18,1.73,0,3.51,0,5.26a4.93,4.93,0,0,1-3.85,4.91C177.34,473.36,174,473.32,171.37,470.39Zm11.29-6c.25-2.71.18-5.37-2.88-6.25a8.47,8.47,0,0,0-6.72.39,3.64,3.64,0,0,0-2,3.56c0,1.62,0,3.24,0,4.86a3.63,3.63,0,0,0,1.86,3.49,8.73,8.73,0,0,0,7.9,0c2.29-1.18,1.84-3.66,1.86-5.82Z"/><path class="cls-1" d="M486.85,467.48h1.78c0,2.07,1.06,3.22,2.8,3.41a19.45,19.45,0,0,0,5.17-.07c1.69-.27,2.09-1.69,1.92-3.39s-1.2-1.67-2.34-1.84c-2.14-.34-4.28-.75-6.42-1.16-1.39-.26-2.84-.51-3-2.41-.27-2.68.47-4.45,2.25-5.12a13.17,13.17,0,0,1,8.95-.24,3.94,3.94,0,0,1,2.76,4.58h-1.94c-.53-2.6-1.47-3.48-4-3.39a13.32,13.32,0,0,0-4.59.76c-.68.28-1.24,1.67-1.28,2.58,0,.48,1.14,1.29,1.88,1.48a46.6,46.6,0,0,0,6.41,1.17c1.73.2,3.1.81,3.67,2.61a4.83,4.83,0,0,1-1.84,5.27c-2.42,1.73-8.25,1.76-10.69,0A3.72,3.72,0,0,1,486.85,467.48Z"/><path class="cls-1" d="M428.85,464.44v-1.95c0-4,1.65-6.12,5.47-6.33a26.47,26.47,0,0,1,7,.76c2.12.46,3.11,2.09,3.14,4.35s0,4.41,0,6.62a3.93,3.93,0,0,1-2.29,3.83,12.25,12.25,0,0,1-10.73.17,4.11,4.11,0,0,1-2.63-4.53A28.44,28.44,0,0,0,428.85,464.44Zm2,.09v2.72a3.44,3.44,0,0,0,2.58,3.53,13.07,13.07,0,0,0,4.49.46c3.31-.2,4.56-1.76,4.57-5.29v-2.72c0-3.84-1.53-5.31-5.22-5.44C432,457.61,430.44,459.08,430.85,464.53Z"/><path class="cls-1" d="M188.56,464.43v-1.95c0-4,1.65-6.11,5.48-6.32a26.52,26.52,0,0,1,7,.76c2.11.46,3.1,2.09,3.13,4.35s0,4.42,0,6.62a3.94,3.94,0,0,1-2.28,3.84,12.3,12.3,0,0,1-10.74.16,4.13,4.13,0,0,1-2.62-4.54C188.63,466.38,188.56,465.4,188.56,464.43Zm2,.17c0,.85,0,1.69,0,2.53a3.3,3.3,0,0,0,2.31,3.52,13.29,13.29,0,0,0,5.19.53c3.2-.41,4.13-1.82,4.13-5.31,0-.9,0-1.81,0-2.72,0-3.71-1.55-5.24-5.09-5.36C191.65,457.6,190.16,459.1,190.56,464.6Z"/><path class="cls-1" d="M333.85,449.85l1.92.1v9.31c2.2-3.13,4.88-3.33,7.65-3.17,3.18.18,6.43,1.64,6,6.35-.28,3.28-.06,6.6-.06,10.07l-2,.1c0-3.52,0-6.88,0-10.24,0-2.68-1.62-4.5-4.15-4.53a23.1,23.1,0,0,0-4.7.35c-1.94.37-2.77,1.86-2.78,3.88,0,3.44,0,6.87,0,10.42h-1.92Z"/><path class="cls-1" d="M210.83,472.54h-1.91V450l1.89-.09v9.35c2.22-3,4.86-3.28,7.64-3.13,3.21.18,6.46,1.68,6.07,6.32-.28,3.28-.05,6.61-.05,10.1l-2,.14c0-3.52,0-6.87,0-10.23,0-2.7-1.59-4.5-4.11-4.58a19,19,0,0,0-4.4.15c-2.12.43-3.11,1.95-3.12,4.25C210.82,465.6,210.83,469,210.83,472.54Z"/><path class="cls-1" d="M463.56,462h-1.68c-1.49-4.12-6.76-5.9-10.18-3.3a5.59,5.59,0,0,0-1.62,3.15A30.49,30.49,0,0,0,450,466c-.24,3.25.9,4.73,4.22,5.24a9.33,9.33,0,0,0,5-.53c1.2-.53,2-2.13,2.66-3.57h1.58c.31,2.29-.31,3.81-2.11,4.62-3.73,1.69-7.49,2-11.22-.08A3.69,3.69,0,0,1,448,468c.07-1.82,0-3.64,0-5.45,0-4,1.64-6.12,5.46-6.34a25.29,25.29,0,0,1,7,.76C462.83,457.46,463.71,459.14,463.56,462Z"/><path class="cls-1" d="M305.92,472.54H304V456.77c1.36-.3,1.36-.3,2.17,2.12,1.91-2.71,4.57-2.95,7.35-2.81,3.22.17,6.47,1.69,6.08,6.32-.28,3.27-.06,6.6-.06,10.09l-2,.15V462.41c0-2.62-1.52-4.42-3.92-4.58a29.4,29.4,0,0,0-3.87,0c-2.43.19-3.83,1.81-3.84,4.39C305.9,465.59,305.92,469,305.92,472.54Z"/><path class="cls-1" d="M474.27,464.48l9.22,7.95c-3,1-4.28-1.58-6.06-2.85-2-1.45-3.85-3.27-6.05-5.18,4.13-2.41,6.68-7.13,11.55-8.13l.36.54Z"/><path class="cls-1" d="M470.18,472.55h-1.79V450l1.79-.13Z"/><path class="cls-1" d="M276.4,456.57l1.75-.09v16l-1.75.09Z"/><path class="cls-1" d="M276.39,450h1.8c0,.46.08.83.08,1.21,0,1.09,0,2.18,0,3.4h-1.88Z"/></svg>