<svg id="Capa_1" data-name="Capa 1" xmlns="http://www.w3.org/2000/svg" viewBox="0 0 612 792"><defs><style>.cls-1{fill:#f4f4f4;}</style></defs><path class="cls-1" d="M129.12,152.82c-.07,1.66-.2,3.31-.2,5q0,181.58-.17,363.13c0,15,9.75,21.46,21.33,21.43q181.56-.36,363.12-.14c1.8,0,3.6.06,5.39.1v34.88c-1.5.12-3,.34-4.51.34q-182.84,0-365.68,0a60.17,60.17,0,0,1-10.74-.73c-26.32-4.79-44.23-26.37-44.24-53.3q0-185.33,0-370.66Z"/><path class="cls-1" d="M518.59,347.14,470,297.7,368.7,399,333,363.16,230.54,466l-24.7-24.63,127-127L367,348.56l76.39-76.39-49-48.86h94.41c16,0,24.18,5.95,29.18,21.09.08.24.36.4.54.6Z"/></svg>