<svg id="Capa_1" data-name="Capa 1" xmlns="http://www.w3.org/2000/svg" viewBox="0 0 612 792"><defs><style>.cls-1{fill:#f4f4f4;}</style></defs><path class="cls-1" d="M503.53,592.83c-1.53.11-3.06.32-4.59.32q-169.54,0-339.09,0c-30.2,0-51.37-21.24-51.37-51.51q0-169.15,0-338.32v-4.5h33V204q0,168.2,0,336.4A33.11,33.11,0,0,0,142,548a16.33,16.33,0,0,0,15.09,12.26c1.41.09,2.82,0,4.24,0H498.51c1.67,0,3.35.06,5,.09Z"/><path class="cls-1" d="M503.53,474c-.27.71-.6,1.41-.8,2.14-3.15,11.06-12.2,18.42-23.77,18.49-29.58.17-59.15.05-88.72,0-.24,0-.49-.11-.26-.06l44.71-44.68-71.36-71L332,410.58l-118.84-119,22.17-22.31,95,95L363,331.55l94.08,94.1c1.5-1.39,2.52-2.27,3.48-3.22l40.1-40.09c.9-.89,1.92-1.65,2.89-2.47Z"/></svg>