<svg id="Capa_1" data-name="Capa 1" xmlns="http://www.w3.org/2000/svg" viewBox="0 0 612 792"><defs><style>.cls-1{fill:#1b3c53;}</style></defs><path class="cls-1" d="M534.08,325.52V514.41a31,31,0,0,0-.82,3.39c-6.34,47.8-46.1,82.92-94.53,83q-132.74.21-265.48,0c-53.18-.1-95.21-42.23-95.34-95.4q-.19-85.3.07-170.6a94.83,94.83,0,0,1,2.2-20.3c9.93-44.39,47.53-74.43,93.4-74.71,28.8-.17,57.61,0,86.41,0,60.43,0,120.87-.35,181.29.19,43.55.38,80.48,31,90.28,73.47C532.49,317.43,533.24,321.48,534.08,325.52ZM305.66,524.87A114.35,114.35,0,0,0,420,410.36c0-62.54-51.09-113.5-113.76-113.58A113.94,113.94,0,0,0,191.93,411.11C192,473.57,243.33,524.92,305.66,524.87Z"/><path class="cls-1" d="M349.64,144.64c2.7.68,5.43,1.29,8.1,2.05,11.29,3.2,21,9,28.41,18.18,9.32,11.54,18.22,23.41,27.28,35.16a6.33,6.33,0,0,1,.56,1.41H197.43l7.62-9.87q9.1-11.81,18.2-23.61c9.55-12.45,21.95-20.13,37.5-22.61a6.67,6.67,0,0,0,1.57-.71Z"/><path class="cls-1" d="M230,410.53a75.94,75.94,0,1,1,75.49,76.25A76,76,0,0,1,230,410.53Z"/></svg>