<svg id="Capa_1" data-name="Capa 1" xmlns="http://www.w3.org/2000/svg" viewBox="0 0 612 792"><defs><style>.cls-1{fill:#f4f4f4;}</style></defs><path class="cls-1" d="M164.65,352.34a15,15,0,0,0,.64-1.42c3.28-10.51,15.27-13.71,23.18-6.06,6.74,6.51,13.29,13.22,19.94,19.83q11.29,11.26,22.84.19Q255.1,342.13,279,319.39c6.73-6.38,16-5.82,21.21,1.15,4.39,5.9,3.52,13.36-2.29,18.9q-20.82,19.86-41.69,39.66c-2.27,2.15-4.54,4.29-6.79,6.47-17.24,16.72-42.35,16.65-59.37-.2-6.13-6.06-12.13-12.25-18.32-18.25-3.23-3.12-6-6.41-7.08-10.9Z"/><path class="cls-1" d="M164.65,464.21c.22-.48.47-1,.66-1.45,3.73-9.83,14.61-12.69,22.59-5.78,7.32,6.35,14.52,12.85,21.68,19.38,6.52,5.95,14,6.06,20.43,0q24.5-23.24,48.9-46.59c3.79-3.62,8.17-5.2,13.29-4a13.72,13.72,0,0,1,6.53,23.15c-7.24,7.07-14.62,14-21.94,21q-14,13.39-28.07,26.76c-16.31,15.59-41,15.65-57.56.25q-9.24-8.58-18.82-16.76c-3.32-2.85-6.16-5.94-7.69-10.09Z"/><path class="cls-1" d="M164.65,243.06a6.59,6.59,0,0,0,.65-1c4.09-10,14.78-12.66,22.86-5.54Q199,246,209.62,255.64c6.56,6,14,6.05,20.43,0q24.25-23,48.48-46.1c5.66-5.36,13.55-5.64,19-.83,6.24,5.51,6.43,14.55.18,20.57-11.56,11.13-23.24,22.14-34.87,33.2-4.84,4.6-9.66,9.22-14.52,13.8a41.15,41.15,0,0,1-56.07.91c-7-6.21-14.12-12.34-20.9-18.8-2.63-2.52-4.49-5.85-6.7-8.81Z"/><path class="cls-1" d="M413,246.3c22.84,0,45.67-.05,68.51,0,9.88,0,16.57,9,13.47,18.1a13.27,13.27,0,0,1-11.34,9.31,24.64,24.64,0,0,1-3.54.2H345.68c-7.27,0-12.46-3.22-14.62-9-3.45-9.18,3.28-18.59,13.45-18.61,21.54-.06,43.08,0,64.63,0Z"/><path class="cls-1" d="M412.94,494.6c-22.84,0-45.67,0-68.51,0-9.89,0-16.59-9-13.52-18.07,1.81-5.35,5.68-8.49,11.31-9.34a24.56,24.56,0,0,1,3.54-.2H480.18c7.47,0,12.68,3.3,14.76,9.27a13.74,13.74,0,0,1-13.17,18.34c-18.42.1-36.84,0-55.26,0Z"/><path class="cls-1" d="M413,384.19q-34.08,0-68.17,0c-8.58,0-14.68-5.89-14.61-13.86a13.68,13.68,0,0,1,12.94-13.55c.64,0,1.29-.05,1.93-.05q67.86,0,135.7,0c7.31,0,12.46,3.55,14.33,9.73a13.58,13.58,0,0,1-12.33,17.65c-6.45.25-12.92.09-19.38.09Z"/></svg>