<svg id="Capa_1" data-name="Capa 1" xmlns="http://www.w3.org/2000/svg" viewBox="0 0 612 792"><defs><style>.cls-1{fill:#0c2b4e;}</style></defs><path class="cls-1" d="M483,320.62V498.36c-.25,1.09-.6,2.18-.74,3.29-4.18,33.32-29.57,61.5-62.29,69-3.84.88-7.74,1.54-11.61,2.3H163.71a18.35,18.35,0,0,0-2.57-.67,81.91,81.91,0,0,1-72-81.28q-.21-81.9,0-163.82c0-28,21.7-49.58,49.8-49.68,14.74-.06,29.48,0,44.22,0h4.12c-.24-53.82,44.3-98.08,97.7-98.46,24.12-.17,45.67,7.3,64.11,22.83,23.27,19.6,34.76,45,35.65,75.63h4.36c15,0,30-.2,45,.05,18.17.31,32.43,8.25,41.7,23.86C479.18,307.23,480.65,314.19,483,320.62Zm-131.38-9.94H220.46v4.39c0,9.24.13,18.47-.05,27.7-.19,9.65-7.32,16.83-16.4,16.87-9.25,0-16.38-7.37-16.43-17.19-.06-9.36,0-18.72,0-28.08v-3.95c-16.27,0-32,0-47.78,0-11.36,0-17.8,6.51-17.8,18q0,80.78,0,161.54c.05,28.79,21.25,50.1,50,50.14q114,.12,228.08,0c28.75,0,50-21.34,50-50.14q.15-80.78,0-161.55c0-11.44-6.46-17.92-17.81-17.95-14.75,0-29.49,0-44.24,0-1.09,0-2.19.17-3.53.27v4.45c0,9.49.13,19-.07,28.46a16.35,16.35,0,0,1-26.05,12.74c-4.84-3.5-6.79-8.49-6.78-14.36C351.66,331.64,351.65,321.28,351.65,310.68Zm-.25-33.33c1.29-21.89-12.51-46-33.37-57.08-23.65-12.58-47.23-11.63-69.39,3.49-18.55,12.66-27.61,30.88-28.23,53.59Z"/></svg>