<svg id="Capa_1" data-name="Capa 1" xmlns="http://www.w3.org/2000/svg" viewBox="0 0 612 792"><defs><style>.cls-1{fill:#0c2b4e;}</style></defs><path class="cls-1" d="M466,367.4c-.3,1.21-.63,2.41-.89,3.63a41.28,41.28,0,0,1-11,20.68q-25.47,26.06-51,52.08c-5.84,5.94-14.1,6-19.5.35s-5.15-13.78.6-19.65q22.29-22.77,44.67-45.45c.8-.82,1.57-1.67,3-3.2h-4.18q-132.76,0-265.54,0a25,25,0,0,1-6.49-.55,13.52,13.52,0,0,1,3.06-26.46c1.35-.07,2.71-.05,4.06-.05H431c-1.11-1.25-1.78-2.08-2.52-2.84-14.79-15.24-29.65-30.43-44.39-45.73-7.47-7.76-4.5-20.05,5.49-22.89,5.25-1.49,9.81,0,13.66,4,15.51,16,30.86,32.19,46.66,47.91C458,337.32,464,346.31,466,357.84Z"/></svg>