<svg id="Capa_1" data-name="Capa 1" xmlns="http://www.w3.org/2000/svg" viewBox="0 0 612 792"><defs><style>.cls-1{fill:#0c2b4e;}</style></defs><path class="cls-1" d="M317,661.16c-2.94-1.68-6.12-3.06-8.76-5.12a20.34,20.34,0,0,1-8-16.64c0-7.22,0-14.44,0-22.52-6.41,0-12.37-.08-18.33,0-17.36.28-34.11-2.72-49.63-10.54-41.43-20.87-63.29-54.54-64.57-101.08-.29-10.46,6-18.45,15.53-21.38,9.05-2.77,19.17.22,24.12,8.34a31.46,31.46,0,0,1,4.16,14c1.36,22.62,10.69,40.78,29.05,54.1a65,65,0,0,0,36.21,12.33c7.55.32,15.11.06,23.16.06.1-2.22.25-4.06.26-5.89,0-49.72-.05-99.43.1-149.14,0-4.23-1-6.26-5.32-7.63-18.21-5.82-36.4-11.77-54.38-18.26-47.39-17.12-78-66.3-72.47-115.79,5.85-52.13,44.79-92.85,95.62-99.76,6.47-.87,13.06-.93,19.6-1.15,5.32-.18,10.66,0,16.9,0,0-7.9-.17-15.42,0-22.93.29-10.17,6.74-18,16.54-20.61,13.13-3.45,26.5,6,27.21,19.53.41,7.71.08,15.46.08,24,6.52,0,12.49.09,18.46,0a113.45,113.45,0,0,1,47.8,9.56c40,17.38,67.84,60.34,66.4,102.63-.38,11.3-8.44,20.4-19.16,21.64a21.89,21.89,0,0,1-24-16.08c-1-3.8-.84-7.87-1.25-11.81C428.59,246.15,402,220.94,367,219.24c-7.36-.35-14.75-.05-22.53-.05-.12,2.13-.3,3.8-.3,5.47q0,75.09-.1,150.17c0,3.93,1.06,5.64,4.9,6.87,17.24,5.51,34.36,11.35,51.49,17.2a111.93,111.93,0,0,1,75.89,115.57c-4,50.19-42,91.88-92.25,100.74-7.43,1.31-15.11,1.29-22.68,1.62-5.48.24-11,0-17.26,0,0,5.4-.37,10.37.07,15.26,1.24,13.78-3.56,23.84-16.9,29Zm27.38-88.35c7.42,0,14.28.23,21.13,0,34.18-1.35,61.57-25,66.35-57.14,5-33.63-13.77-63.93-46.81-75.34-12-4.16-24.16-8.12-36.25-12.14-1.35-.45-2.78-.7-4.42-1.11ZM299.85,219.13c-7.08,0-13.61-.14-20.13,0-34.43.87-62.42,24.75-67.25,57.31-5,33.56,14,64,47,75.24,7,2.38,14,4.71,21.06,7.05,6.31,2.11,12.63,4.19,19.37,6.43Z"/></svg>