<svg id="Capa_1" data-name="Capa 1" xmlns="http://www.w3.org/2000/svg" viewBox="0 0 612 792"><defs><style>.cls-1{fill:#0c2b4e;}</style></defs><path class="cls-1" d="M109.93,448c.95-3.39,1.62-6.89,2.89-10.15,5.52-14.06,15.59-23.38,30.06-27.65,2.85-.84,3.37-2.08,3.41-4.69.2-11.87-.56-23.9,1.15-35.56,4.23-28.85,30.05-51.19,59.16-51.93,18.24-.45,36.5-.15,54.75-.15q91.27,0,182.54,0c31.12,0,56.62,19.79,62.84,49.67,2,9.55,1.82,19.71,1.47,29.55-.29,8,1.15,12.33,9.85,15.81,17.23,6.88,26,21.35,26.53,39.95.48,15.27.31,30.57.07,45.84-.4,26-11.72,46.14-33.16,60.63-2.38,1.61-3.37,3.18-3.31,6.08.22,10.47.19,20.94.19,31.41,0,6.62-3.34,10.66-8.78,10.78s-9.21-4.14-9.23-10.82c0-9.17,0-18.34,0-26.34-15.45.3-30.54.83-45.62.85q-119.72.12-239.42,0c-13.53,0-27.06-.59-41-.92,0,7.9,0,16.91,0,25.91a18.28,18.28,0,0,1-.54,5,8.9,8.9,0,0,1-17.41-2.69c-.09-11.32.13-22.64,0-34a6.59,6.59,0,0,0-2.45-4.67c-18.66-12.47-30.08-29.5-33.25-51.87a6.08,6.08,0,0,0-.64-1.52Zm90.65,32.62H454.05c0-8.89-.09-17.5,0-26.11.28-21.53,12.85-38.37,33.36-44.43,2.49-.73,3-1.79,3-4.08-.11-7.5,0-15,0-22.49,0-28.29-19.41-47.58-47.8-47.6H346.62q-68.12,0-136.25,0c-22.07,0-40.75,14.3-44.76,35.39-1.8,9.46-1.09,19.42-1.3,29.16-.17,8.16,0,8.16,7.33,11,.53.21,1.05.43,1.56.67,17.86,8.48,26.84,22.74,27.34,42.36C200.76,463.1,200.58,471.72,200.58,480.61Zm126.74,72.67q72.38,0,144.76,0c28.29,0,51.8-20.87,53.94-49,1.31-17.3.45-34.77.46-52.17a21.63,21.63,0,0,0-1-5.83c-3.76-13.17-16.1-21.14-30-19.44-12.63,1.55-22.77,12.72-23.07,25.92-.27,11.46-.08,22.92-.11,34.38,0,8.66-3.17,11.85-11.69,11.85H194c-8.53,0-11.66-3.18-11.68-11.85,0-11.61.2-23.22-.16-34.81-.32-10.51-5.68-18.26-15-22.93-18-9-38.66,3.82-39.11,24.42-.34,15.41-.11,30.84,0,46.27a47.41,47.41,0,0,0,1,9.26c5.37,26.07,27.22,43.94,53.89,44Q255.16,553.35,327.32,553.28Z"/><path class="cls-1" d="M166.83,172.87c7.93,5,8.67,10.21,2.3,17.16-10.24,11.15-20.55,22.23-30.81,33.35-.93,1-1.8,2.08-3.06,3.55H519.44c-1.17-1.39-2.06-2.52-3-3.57Q501,206.7,485.56,190c-6.4-6.94-5.69-12.15,2.24-17.16h5.1a74.71,74.71,0,0,1,6.68,5.71c13.05,14,26,28,39,42,8,8.59,8.47,21.82.58,30.55-13.66,15.11-27.59,30-41.49,44.89-4.11,4.42-9.71,4.73-13.5,1s-3.72-9,.51-13.59q15.66-17,31.4-34l3.6-3.94H135.11c1.35,1.54,2.28,2.66,3.27,3.72,10.66,11.54,21.36,23,32,34.6,3.34,3.64,3.85,7.63,1.65,11.26s-5.43,5.08-9.39,4.17a11.16,11.16,0,0,1-5.35-3.09c-14.12-15.07-28.23-30.17-42-45.51-2.44-2.71-3.57-6.59-5.3-9.93v-8.49c2.1-3.94,3.52-8.48,6.4-11.71,12.68-14.22,25.74-28.09,38.75-42a77.57,77.57,0,0,1,6.65-5.72Z"/></svg>