<svg id="Capa_1" data-name="Capa 1" xmlns="http://www.w3.org/2000/svg" viewBox="0 0 612 792"><defs><style>.cls-1{fill:#f4f4f4;}</style></defs><path class="cls-1" d="M207.31,541c-2.68-.63-5.36-1.19-8-1.89-29.18-7.6-46.82-35.78-41.56-65.49,5.89-33.22,21.88-61.06,44.36-85.59,5.53-6,11.34-11.81,16.9-17.57-5.33-5.49-11-11.1-16.38-16.93-19.74-21.32-34.74-45.36-42.18-73.72-3.5-13.34-5.52-26.65-1.13-40.28,7.36-22.86,29-39.36,53-39.45q71.91-.27,143.83,0a56.54,56.54,0,0,1,52.64,36.69c3.06,8-.23,16.1-7.72,19.07s-15.35-.64-18.66-8.61c-5.08-12.24-14.6-18.72-27.9-18.73-46.61,0-93.22.2-139.83-.12-17.49-.12-32.64,15.19-28.93,34.55,5,26.09,17,48.44,34.71,67.76,9.09,9.95,19.36,18.87,29.43,27.89,8.23,7.38,8.49,16.84-.12,23.82-16.29,13.2-31.12,27.77-42.95,45.19a130.19,130.19,0,0,0-21.34,52.21c-2.72,16.34,9.7,32,26.27,32.59,9.09.34,18.2.14,27.3.14,37.95,0,75.91-.09,113.86.06,14.38,0,24.32-6,29.78-19.48A14.17,14.17,0,1,1,409,503.7c-8.29,20.75-23.53,33-45.63,36.7-.75.13-1.47.4-2.21.6Z"/><path class="cls-1" d="M497.68,377.83c-1.06,5.2-1.81,10.48-3.23,15.57a85.23,85.23,0,0,1-86.72,62.27c-39.49-2-72.65-31.74-79.33-71.08-8.21-48.41,26.35-93.75,75.34-98.82a85.19,85.19,0,0,1,93.33,74.84,23.37,23.37,0,0,0,.61,2.57Zm-85.24-64.07a56.76,56.76,0,1,0,56.75,56.68A56.64,56.64,0,0,0,412.44,313.76Z"/><path class="cls-1" d="M284.57,484.22c-17,0-33.94,0-50.91,0-8.26,0-14.23-4.43-15.25-11.89a18.17,18.17,0,0,1,1.35-9c7.74-18.71,20.27-34,35-47.57,6.68-6.15,13.82-11.81,20.91-17.5,5.18-4.17,11.91-4.5,17-.66,19.2,14.54,36.85,30.65,49.45,51.52a125.39,125.39,0,0,1,7.28,14.17c4.77,10.76-1.78,20.82-13.56,20.9C318.74,484.3,301.65,484.22,284.57,484.22Zm0-56.82c-10.34,8.51-19.71,17.39-27.64,28.12h55.33A162.73,162.73,0,0,0,284.53,427.4Z"/><path class="cls-1" d="M398.3,356.22c0-4.77-.1-9.54,0-14.3a14.11,14.11,0,0,1,28.22,0c.15,6.75-.05,13.52.12,20.28a6.87,6.87,0,0,0,1.67,4c2.57,2.89,5.48,5.49,8.15,8.3,5.78,6.09,5.82,14.65.17,20.28s-14.24,5.59-20.26-.23c-4.62-4.47-9.11-9.08-13.66-13.62a14.33,14.33,0,0,1-4.45-10.73c.05-4.65,0-9.31,0-14Z"/></svg>