<svg id="Capa_1" data-name="Capa 1" xmlns="http://www.w3.org/2000/svg" viewBox="0 0 612 792"><defs><style>.cls-1{fill:#0c2b4e;}</style></defs><path class="cls-1" d="M109.78,540.18c1.38-7.2,2.26-14.53,4.21-21.57,12-43.1,50-74.59,94.56-78.55,55.44-4.93,105,31.4,116.4,86.06,2.06,9.86,2.06,20.23,2.29,30.39.17,7.3-6.29,13.2-13.55,13.56a14.25,14.25,0,0,1-15-12,59.92,59.92,0,0,1-.37-8.8c-.26-39.85-26.24-71.46-65.29-79.39-41.75-8.47-84.88,20.57-92.55,62.65-1.31,7.19-1.27,14.63-1.6,22-.23,5-1.65,9.34-5.71,12.51a14.44,14.44,0,0,1-22.07-5.39c-.46-1-.89-2.05-1.34-3.07Z"/><path class="cls-1" d="M370.24,221.91c6.81,2,13.92,3.23,20.36,6a63.94,63.94,0,0,1,37.72,67.43c-4.28,30.67-27.13,53-56.64,56.54-39.55,4.76-74.22-26.41-73.3-65.9a65.33,65.33,0,0,1,56.69-63.5,18.24,18.24,0,0,0,2.25-.6ZM363.71,251A36.19,36.19,0,1,0,400,287.33,36.19,36.19,0,0,0,363.71,251Z"/><path class="cls-1" d="M218.8,410.44c-36,0-65.42-29-65.48-64.67a65.37,65.37,0,0,1,65.73-65.86c35.57,0,64.76,29.47,64.82,65.43C283.93,381.06,254.58,410.43,218.8,410.44Zm-36.4-65.51a36.19,36.19,0,1,0,36.22-36A36.21,36.21,0,0,0,182.4,344.93Z"/><path class="cls-1" d="M356.63,381.14a102,102,0,0,1,100.78,92.1,91.14,91.14,0,0,1,.51,10.17,14.29,14.29,0,0,1-13.13,14c-7.88.56-14.36-4.32-15.55-12-1-6.59-1-13.39-2.6-19.81-13-52.19-75.8-72.49-116.94-37.9-4.29,3.6-8.78,6.09-14.53,4.71s-9.42-4.88-10.87-10.53a13.76,13.76,0,0,1,4.43-14.47,99.1,99.1,0,0,1,49.7-24.21C344.43,382.11,350.56,381.79,356.63,381.14Z"/></svg>