<svg id="Capa_1" data-name="Capa 1" xmlns="http://www.w3.org/2000/svg" viewBox="0 0 612 792"><defs><style>.cls-1{fill:#0c2b4e;}</style></defs><path class="cls-1" d="M76.55,650.86q0-58,0-116c.06-57.63,38.2-104.32,94.65-115.5A120.18,120.18,0,0,1,194,417.44q92.76-.22,185.5-.05c58.8.14,105.24,38.95,115.82,96.78A120.43,120.43,0,0,1,497,535.4c.15,38.48.07,77,.07,115.46Z"/><path class="cls-1" d="M146.64,229.9c.24-77.42,63.41-140,140.9-139.66,77.2.37,139.66,63.37,139.4,140.62A140.23,140.23,0,0,1,286,370.53C208.86,370.15,146.4,307.13,146.64,229.9Z"/></svg>